<svg xmlns="http://www.w3.org/2000/svg" xmlns:xlink="http://www.w3.org/1999/xlink" width="2000" zoomAndPan="magnify" viewBox="0 0 1500 1499.999933" height="2000" preserveAspectRatio="xMidYMid meet" version="1.0"><defs><clipPath id="e4e0955be2"><path d="M 762 61.503906 L 890 61.503906 L 890 512 L 762 512 Z M 762 61.503906 " clip-rule="nonzero"/></clipPath></defs><path fill="#eaeaea" d="M 342.535156 1263.65625 C 318.953125 1278.148438 296.503906 1301.445312 298.210938 1329.289062 C 300.484375 1362.53125 335.429688 1382.707031 366.96875 1394.070312 C 419.53125 1412.824219 474.9375 1423.050781 530.058594 1432.144531 C 662.746094 1453.738281 796.570312 1467.945312 930.964844 1474.195312 C 975.003906 1476.183594 1022.167969 1476.753906 1058.820312 1452.035156 C 1072.175781 1442.941406 1083.824219 1430.441406 1089.222656 1415.097656 C 1096.609375 1393.503906 1090.925781 1369.066406 1079.5625 1349.179688 C 1046.886719 1292.636719 976.992188 1271.042969 912.777344 1259.394531 C 811.914062 1240.925781 709.058594 1234.390625 606.773438 1232.402344 C 519.828125 1230.695312 419.53125 1216.207031 342.535156 1263.65625 Z M 342.535156 1263.65625 " fill-opacity="1" fill-rule="nonzero"/><path fill="#eaeaea" d="M 965.34375 510.996094 C 965.34375 511.890625 965.234375 512.78125 965.019531 513.671875 C 964.804688 514.566406 964.480469 515.453125 964.050781 516.34375 C 963.617188 517.230469 963.082031 518.117188 962.4375 519 C 961.792969 519.882812 961.039062 520.761719 960.183594 521.640625 C 959.324219 522.515625 958.363281 523.386719 957.296875 524.25 C 956.226562 525.117188 955.054688 525.976562 953.78125 526.832031 C 952.503906 527.6875 951.128906 528.535156 949.648438 529.375 C 948.167969 530.214844 946.585938 531.046875 944.902344 531.871094 C 943.222656 532.699219 941.441406 533.511719 939.5625 534.320312 C 937.683594 535.128906 935.710938 535.925781 933.636719 536.710938 C 931.566406 537.5 929.402344 538.277344 927.140625 539.042969 C 924.882812 539.808594 922.53125 540.5625 920.09375 541.304688 C 917.652344 542.046875 915.121094 542.777344 912.503906 543.492188 C 909.886719 544.210938 907.183594 544.914062 904.394531 545.605469 C 901.609375 546.292969 898.738281 546.96875 895.789062 547.632812 C 892.835938 548.292969 889.808594 548.941406 886.699219 549.570312 C 883.59375 550.203125 880.410156 550.816406 877.15625 551.417969 C 873.898438 552.015625 870.574219 552.601562 867.175781 553.167969 C 863.78125 553.734375 860.316406 554.28125 856.789062 554.8125 C 853.257812 555.34375 849.667969 555.859375 846.011719 556.355469 C 842.359375 556.851562 838.648438 557.328125 834.878906 557.789062 C 831.109375 558.246094 827.289062 558.6875 823.410156 559.109375 C 819.535156 559.527344 815.613281 559.929688 811.640625 560.3125 C 807.667969 560.691406 803.652344 561.054688 799.59375 561.398438 C 795.53125 561.738281 791.433594 562.058594 787.296875 562.359375 C 783.160156 562.660156 778.988281 562.941406 774.785156 563.199219 C 770.578125 563.460938 766.34375 563.699219 762.082031 563.914062 C 757.820312 564.132812 753.535156 564.328125 749.222656 564.5 C 744.914062 564.675781 740.585938 564.828125 736.238281 564.957031 C 731.890625 565.089844 727.53125 565.199219 723.160156 565.285156 C 718.785156 565.375 714.40625 565.441406 710.015625 565.484375 C 705.628906 565.527344 701.234375 565.550781 696.839844 565.550781 C 692.449219 565.550781 688.054688 565.527344 683.667969 565.484375 C 679.277344 565.441406 674.898438 565.375 670.523438 565.285156 C 666.152344 565.199219 661.792969 565.089844 657.445312 564.957031 C 653.097656 564.828125 648.769531 564.675781 644.460938 564.5 C 640.148438 564.328125 635.863281 564.132812 631.601562 563.914062 C 627.339844 563.699219 623.105469 563.460938 618.898438 563.199219 C 614.695312 562.941406 610.523438 562.660156 606.386719 562.359375 C 602.25 562.058594 598.152344 561.738281 594.089844 561.398438 C 590.03125 561.054688 586.015625 560.691406 582.042969 560.3125 C 578.070312 559.929688 574.148438 559.527344 570.269531 559.109375 C 566.394531 558.6875 562.574219 558.246094 558.804688 557.789062 C 555.035156 557.328125 551.324219 556.851562 547.671875 556.355469 C 544.015625 555.859375 540.425781 555.34375 536.894531 554.8125 C 533.367188 554.28125 529.902344 553.734375 526.507812 553.167969 C 523.109375 552.601562 519.785156 552.015625 516.527344 551.417969 C 513.273438 550.816406 510.089844 550.203125 506.984375 549.570312 C 503.875 548.941406 500.847656 548.292969 497.894531 547.632812 C 494.945312 546.96875 492.074219 546.292969 489.289062 545.605469 C 486.5 544.914062 483.796875 544.210938 481.179688 543.492188 C 478.5625 542.777344 476.03125 542.046875 473.589844 541.304688 C 471.148438 540.5625 468.800781 539.808594 466.539062 539.042969 C 464.28125 538.277344 462.117188 537.5 460.042969 536.710938 C 457.972656 535.925781 456 535.128906 454.121094 534.320312 C 452.242188 533.511719 450.460938 532.699219 448.777344 531.871094 C 447.097656 531.046875 445.515625 530.214844 444.035156 529.375 C 442.554688 528.535156 441.179688 527.6875 439.902344 526.832031 C 438.625 525.976562 437.453125 525.117188 436.386719 524.25 C 435.320312 523.386719 434.355469 522.515625 433.5 521.640625 C 432.640625 520.761719 431.890625 519.882812 431.246094 519 C 430.601562 518.117188 430.0625 517.230469 429.632812 516.34375 C 429.203125 515.453125 428.878906 514.566406 428.664062 513.671875 C 428.449219 512.78125 428.339844 511.890625 428.339844 510.996094 C 428.339844 510.105469 428.449219 509.210938 428.664062 508.320312 C 428.878906 507.429688 429.203125 506.539062 429.632812 505.648438 C 430.0625 504.761719 430.601562 503.875 431.246094 502.992188 C 431.890625 502.109375 432.640625 501.230469 433.5 500.355469 C 434.355469 499.476562 435.320312 498.605469 436.386719 497.742188 C 437.453125 496.875 438.625 496.015625 439.902344 495.160156 C 441.179688 494.304688 442.554688 493.457031 444.035156 492.617188 C 445.515625 491.777344 447.097656 490.945312 448.777344 490.121094 C 450.460938 489.296875 452.242188 488.480469 454.121094 487.671875 C 456 486.863281 457.972656 486.066406 460.042969 485.28125 C 462.117188 484.492188 464.28125 483.714844 466.539062 482.949219 C 468.800781 482.183594 471.148438 481.429688 473.589844 480.6875 C 476.03125 479.945312 478.5625 479.214844 481.179688 478.5 C 483.796875 477.78125 486.5 477.078125 489.289062 476.386719 C 492.074219 475.699219 494.945312 475.023438 497.894531 474.359375 C 500.847656 473.699219 503.875 473.054688 506.984375 472.421875 C 510.089844 471.789062 513.273438 471.175781 516.527344 470.574219 C 519.785156 469.976562 523.109375 469.394531 526.507812 468.828125 C 529.902344 468.261719 533.367188 467.710938 536.894531 467.179688 C 540.425781 466.648438 544.015625 466.132812 547.671875 465.636719 C 551.324219 465.140625 555.035156 464.664062 558.804688 464.203125 C 562.574219 463.746094 566.394531 463.304688 570.269531 462.886719 C 574.148438 462.464844 578.070312 462.0625 582.042969 461.679688 C 586.015625 461.300781 590.03125 460.9375 594.089844 460.597656 C 598.152344 460.253906 602.25 459.933594 606.386719 459.632812 C 610.523438 459.332031 614.695312 459.050781 618.898438 458.792969 C 623.105469 458.535156 627.339844 458.296875 631.601562 458.078125 C 635.863281 457.863281 640.148438 457.664062 644.460938 457.492188 C 648.769531 457.316406 653.097656 457.164062 657.445312 457.035156 C 661.792969 456.902344 666.152344 456.792969 670.523438 456.707031 C 674.898438 456.617188 679.277344 456.554688 683.667969 456.507812 C 688.054688 456.464844 692.449219 456.445312 696.839844 456.445312 C 701.234375 456.445312 705.628906 456.464844 710.015625 456.507812 C 714.40625 456.554688 718.785156 456.617188 723.160156 456.707031 C 727.53125 456.792969 731.890625 456.902344 736.238281 457.035156 C 740.585938 457.164062 744.914062 457.316406 749.222656 457.492188 C 753.535156 457.664062 757.820312 457.863281 762.082031 458.078125 C 766.34375 458.296875 770.578125 458.535156 774.785156 458.792969 C 778.988281 459.050781 783.160156 459.332031 787.296875 459.632812 C 791.433594 459.933594 795.53125 460.253906 799.59375 460.597656 C 803.652344 460.9375 807.667969 461.300781 811.640625 461.679688 C 815.613281 462.0625 819.535156 462.464844 823.410156 462.886719 C 827.289062 463.304688 831.109375 463.746094 834.878906 464.203125 C 838.648438 464.664062 842.359375 465.140625 846.011719 465.636719 C 849.667969 466.132812 853.257812 466.648438 856.789062 467.179688 C 860.316406 467.710938 863.78125 468.261719 867.175781 468.828125 C 870.574219 469.394531 873.898438 469.976562 877.15625 470.574219 C 880.410156 471.175781 883.59375 471.789062 886.699219 472.421875 C 889.808594 473.054688 892.835938 473.699219 895.789062 474.359375 C 898.738281 475.023438 901.609375 475.699219 904.394531 476.386719 C 907.183594 477.078125 909.886719 477.78125 912.503906 478.5 C 915.121094 479.214844 917.652344 479.945312 920.09375 480.6875 C 922.53125 481.429688 924.882812 482.183594 927.140625 482.949219 C 929.402344 483.714844 931.566406 484.492188 933.636719 485.28125 C 935.710938 486.066406 937.683594 486.863281 939.5625 487.671875 C 941.441406 488.480469 943.222656 489.296875 944.902344 490.121094 C 946.585938 490.945312 948.167969 491.777344 949.648438 492.617188 C 951.128906 493.457031 952.503906 494.304688 953.78125 495.160156 C 955.054688 496.015625 956.226562 496.875 957.296875 497.742188 C 958.363281 498.605469 959.324219 499.476562 960.183594 500.355469 C 961.039062 501.230469 961.792969 502.109375 962.4375 502.992188 C 963.082031 503.875 963.617188 504.761719 964.050781 505.648438 C 964.480469 506.539062 964.804688 507.429688 965.019531 508.320312 C 965.234375 509.210938 965.34375 510.105469 965.34375 510.996094 Z M 965.34375 510.996094 " fill-opacity="1" fill-rule="nonzero"/><path fill="#eaeaea" d="M 961.933594 519.519531 L 949.148438 655.902344 L 947.726562 672.667969 L 947.441406 676.929688 L 889.195312 1298.605469 C 885.503906 1336.960938 853.394531 1366.511719 814.753906 1366.511719 L 576.65625 1366.511719 C 538.015625 1366.511719 505.90625 1337.246094 502.214844 1298.605469 L 443.683594 674.085938 L 443.117188 668.972656 L 442.261719 658.460938 L 428.625 513.269531 C 429.191406 516.109375 430.613281 518.667969 433.171875 521.226562 C 433.453125 521.507812 433.453125 521.792969 433.738281 521.792969 C 434.308594 522.363281 435.160156 523.214844 435.726562 523.78125 C 436.582031 524.351562 437.148438 525.203125 438.285156 525.769531 C 438.851562 526.054688 439.421875 526.625 439.988281 526.90625 C 440.558594 527.191406 441.410156 527.761719 441.980469 528.042969 C 442.261719 528.328125 442.546875 528.328125 443.117188 528.613281 C 443.398438 528.898438 443.683594 528.898438 444.25 529.179688 C 445.105469 529.464844 445.671875 530.03125 446.523438 530.316406 C 447.378906 530.601562 447.945312 531.167969 448.796875 531.453125 C 449.648438 531.738281 450.503906 532.304688 451.355469 532.589844 C 452.207031 532.875 453.058594 533.441406 453.914062 533.726562 C 455.332031 534.292969 456.753906 534.863281 458.175781 535.429688 C 459.59375 536 461.015625 536.566406 462.71875 537.136719 C 464.140625 537.703125 465.84375 538.273438 467.550781 538.839844 C 468.6875 539.125 469.824219 539.695312 470.960938 539.976562 C 472.664062 540.546875 474.652344 541.113281 476.359375 541.683594 C 477.496094 541.964844 478.347656 542.25 479.484375 542.535156 C 488.292969 545.09375 497.953125 547.363281 508.464844 549.355469 C 509.601562 549.636719 510.738281 549.921875 511.875 549.921875 C 513.296875 550.207031 515 550.492188 516.703125 550.773438 C 518.410156 551.058594 519.828125 551.34375 521.535156 551.625 C 522.671875 551.910156 523.808594 551.910156 524.945312 552.195312 C 526.363281 552.480469 527.5 552.761719 528.921875 552.761719 C 531.761719 553.332031 534.605469 553.617188 537.730469 554.183594 C 539.152344 554.46875 540.570312 554.753906 541.992188 554.753906 C 543.414062 555.035156 545.117188 555.320312 546.539062 555.320312 C 548.527344 555.605469 550.515625 555.890625 552.789062 556.171875 C 554.492188 556.457031 556.480469 556.742188 558.1875 556.742188 C 559.039062 556.742188 560.175781 557.023438 561.027344 557.023438 C 562.449219 557.308594 564.152344 557.308594 565.574219 557.59375 C 568.699219 557.878906 571.824219 558.445312 575.234375 558.730469 C 576.65625 559.015625 578.074219 559.015625 579.78125 559.296875 C 583.191406 559.582031 586.882812 559.867188 590.578125 560.433594 C 592.28125 560.71875 593.703125 560.71875 595.40625 560.71875 C 597.398438 561.003906 599.386719 561.003906 601.375 561.289062 C 607.910156 561.855469 614.445312 562.140625 621.261719 562.707031 C 622.683594 562.707031 624.105469 562.992188 625.808594 562.992188 C 627.796875 562.992188 630.070312 563.277344 632.058594 563.277344 C 634.050781 563.277344 636.324219 563.558594 638.3125 563.558594 C 640.300781 563.558594 642.574219 563.84375 644.5625 563.84375 C 651.097656 564.128906 657.347656 564.414062 663.882812 564.414062 C 667.578125 564.414062 670.984375 564.695312 674.679688 564.695312 C 675.246094 564.695312 676.101562 564.695312 676.667969 564.695312 C 678.375 564.695312 680.078125 564.695312 681.5 564.695312 C 686.613281 564.695312 692.011719 564.695312 697.125 564.695312 C 705.648438 564.695312 713.890625 564.695312 722.128906 564.414062 C 724.117188 564.414062 726.105469 564.414062 728.378906 564.414062 C 730.367188 564.414062 732.359375 564.414062 734.347656 564.128906 C 754.519531 563.558594 774.125 562.421875 792.59375 561.003906 C 794.582031 560.71875 796.285156 560.71875 797.992188 560.433594 C 801.683594 560.152344 805.378906 559.867188 808.789062 559.582031 C 810.492188 559.296875 812.480469 559.296875 814.1875 559.015625 C 819.585938 558.445312 824.699219 557.878906 829.8125 557.308594 C 831.519531 557.023438 833.222656 557.023438 834.929688 556.742188 C 835.78125 556.742188 836.347656 556.457031 837.199219 556.457031 C 838.90625 556.171875 840.328125 556.171875 842.03125 555.890625 C 843.167969 555.890625 844.019531 555.605469 845.15625 555.605469 C 846.859375 555.320312 848.28125 555.320312 849.703125 555.035156 C 851.691406 554.753906 853.394531 554.46875 855.386719 554.183594 C 856.804688 553.898438 857.941406 553.898438 859.078125 553.617188 C 860.785156 553.332031 862.203125 553.046875 863.625 552.761719 C 865.046875 552.480469 866.75 552.195312 868.171875 551.910156 C 880.957031 549.636719 892.605469 547.363281 903.117188 544.808594 C 904.824219 544.523438 906.527344 543.957031 907.949219 543.671875 C 908.234375 543.671875 908.234375 543.671875 908.515625 543.386719 C 909.085938 543.101562 909.652344 543.101562 910.222656 542.820312 C 911.359375 542.535156 912.496094 542.25 913.632812 541.964844 C 914.769531 541.683594 915.90625 541.398438 917.039062 541.113281 C 918.746094 540.546875 920.449219 540.261719 921.871094 539.691406 C 923.007812 539.410156 923.859375 539.125 924.996094 538.558594 C 926.417969 537.988281 928.121094 537.421875 929.542969 537.136719 C 930.964844 536.566406 932.382812 536 933.804688 535.429688 C 934.65625 535.148438 935.507812 534.578125 936.644531 534.292969 C 938.351562 533.441406 940.339844 532.875 941.761719 532.023438 C 942.613281 531.738281 943.179688 531.453125 944.03125 530.886719 C 944.886719 530.601562 945.453125 530.03125 946.304688 529.75 C 947.160156 529.464844 947.726562 528.894531 948.578125 528.613281 C 948.863281 528.328125 949.148438 528.328125 949.714844 528.042969 C 950 527.761719 950.285156 527.761719 950.566406 527.476562 C 951.421875 526.90625 952.558594 526.339844 953.410156 525.769531 C 953.976562 525.488281 954.546875 525.203125 954.828125 524.632812 C 955.113281 524.351562 955.683594 524.066406 955.964844 523.78125 C 956.535156 523.496094 956.820312 522.929688 957.386719 522.644531 C 959.089844 522.644531 960.796875 520.941406 961.933594 519.519531 Z M 961.933594 519.519531 " fill-opacity="1" fill-rule="nonzero"/><path fill="#a7a9ac" d="M 976.140625 510.996094 C 976.140625 489.6875 947.441406 473.773438 888.914062 461.84375 C 837.484375 451.328125 769.292969 445.648438 696.839844 445.648438 C 624.390625 445.648438 556.199219 451.328125 504.769531 461.84375 C 445.957031 473.777344 417.542969 489.972656 417.542969 510.996094 C 417.542969 512.417969 417.542969 513.554688 417.828125 514.972656 L 431.464844 659.3125 L 432.886719 674.9375 L 491.417969 1299.457031 C 495.679688 1343.78125 532.332031 1377.023438 576.65625 1377.023438 L 814.46875 1377.023438 C 859.078125 1377.023438 895.730469 1343.496094 899.710938 1299.457031 L 972.445312 523.214844 C 974.71875 519.234375 976.140625 515.257812 976.140625 510.996094 Z M 509.03125 483.152344 C 559.039062 472.921875 625.527344 467.242188 696.558594 467.242188 C 767.589844 467.242188 834.074219 472.921875 884.082031 483.152344 C 942.042969 495.085938 953.976562 508.15625 953.976562 510.996094 C 953.976562 511.28125 953.976562 511.847656 953.410156 512.132812 C 953.125 512.417969 953.125 512.417969 952.839844 512.699219 C 952.273438 513.554688 951.136719 514.691406 950 515.542969 C 949.714844 515.828125 949.148438 516.109375 948.863281 516.394531 C 948.578125 516.679688 948.296875 516.964844 948.011719 516.964844 C 947.726562 517.246094 947.160156 517.53125 946.589844 517.816406 C 946.023438 518.382812 945.167969 518.667969 944.316406 519.234375 L 943.464844 519.804688 C 943.179688 519.804688 942.898438 520.089844 942.613281 520.371094 C 942.042969 520.65625 941.191406 520.941406 940.625 521.507812 C 940.054688 521.792969 939.488281 522.078125 938.917969 522.363281 C 938.632812 522.363281 938.632812 522.363281 938.351562 522.644531 L 936.644531 523.5 C 935.226562 524.066406 933.519531 524.917969 931.816406 525.488281 L 931.53125 525.488281 C 930.679688 525.769531 930.109375 526.054688 929.257812 526.339844 C 927.835938 526.90625 926.703125 527.476562 925.28125 527.761719 C 923.859375 528.328125 922.4375 528.613281 921.019531 529.179688 C 919.882812 529.464844 919.03125 529.75 917.894531 530.03125 C 916.472656 530.601562 914.769531 530.886719 913.0625 531.453125 C 912.210938 531.738281 911.359375 532.023438 910.507812 532.304688 C 910.222656 532.304688 910.222656 532.304688 909.9375 532.304688 C 908.800781 532.589844 907.664062 532.875 906.527344 533.160156 C 906.242188 533.160156 906.242188 533.160156 905.960938 533.441406 C 905.960938 533.441406 905.960938 533.441406 905.675781 533.441406 C 905.390625 533.441406 905.109375 533.441406 904.824219 533.726562 C 904.539062 533.726562 904.539062 533.726562 904.253906 534.011719 C 903.117188 534.296875 902.265625 534.578125 901.128906 534.863281 L 900.84375 534.863281 C 900.277344 534.863281 899.710938 535.148438 899.140625 535.148438 C 898.574219 535.148438 898.289062 535.429688 897.71875 535.429688 C 896.582031 535.714844 895.445312 536 894.3125 536.285156 C 894.027344 536.285156 893.742188 536.285156 893.457031 536.566406 C 892.039062 536.851562 890.617188 537.136719 889.195312 537.421875 C 889.195312 537.421875 888.910156 537.421875 888.910156 537.421875 C 887.207031 537.703125 885.503906 538.273438 883.796875 538.558594 C 880.671875 539.125 877.546875 539.695312 874.421875 540.261719 C 873.570312 540.546875 872.433594 540.546875 871.582031 540.832031 C 871.011719 540.832031 870.445312 541.113281 869.875 541.113281 C 868.738281 541.398438 867.601562 541.398438 866.183594 541.683594 C 865.898438 541.683594 865.613281 541.683594 865.046875 541.964844 L 860.785156 542.535156 C 859.363281 542.820312 857.941406 543.101562 856.238281 543.101562 C 856.238281 543.101562 856.238281 543.101562 855.953125 543.101562 C 854.816406 543.386719 853.679688 543.386719 852.542969 543.671875 C 852.542969 543.671875 852.257812 543.671875 852.257812 543.671875 C 850.554688 543.957031 848.566406 544.238281 846.578125 544.523438 C 845.15625 544.808594 843.453125 544.808594 842.03125 545.09375 C 841.179688 545.09375 840.042969 545.375 838.90625 545.375 L 833.507812 545.945312 C 832.9375 545.945312 832.65625 545.945312 832.085938 546.230469 C 832.085938 546.230469 831.800781 546.230469 831.800781 546.230469 C 830.664062 546.511719 829.527344 546.511719 828.394531 546.511719 L 826.6875 546.796875 C 821.859375 547.363281 816.742188 547.933594 811.34375 548.5 C 809.640625 548.785156 807.933594 548.785156 805.945312 549.070312 C 802.535156 549.355469 798.84375 549.636719 795.148438 549.921875 L 789.75 550.492188 C 771.28125 551.910156 751.960938 553.046875 732.074219 553.617188 C 730.367188 553.617188 728.664062 553.617188 726.960938 553.617188 C 725.253906 553.617188 723.832031 553.617188 722.128906 553.617188 L 721.277344 553.617188 C 712.753906 553.898438 703.945312 553.898438 695.136719 553.898438 C 690.875 553.898438 686.328125 553.898438 682.066406 553.898438 C 681.5 553.898438 681.214844 553.898438 680.644531 553.898438 C 677.238281 553.898438 673.828125 553.898438 670.417969 553.617188 C 667.578125 553.617188 665.019531 553.617188 662.179688 553.332031 C 662.179688 553.332031 662.179688 553.332031 661.894531 553.332031 C 659.90625 553.332031 657.914062 553.332031 655.925781 553.046875 C 655.644531 553.046875 655.359375 553.046875 655.359375 553.046875 C 653.652344 553.046875 652.234375 553.046875 650.527344 552.761719 C 649.675781 552.761719 648.824219 552.761719 647.972656 552.761719 C 647.402344 552.761719 647.117188 552.761719 646.550781 552.761719 C 645.128906 552.761719 643.710938 552.761719 642.574219 552.480469 C 640.585938 552.480469 638.3125 552.195312 636.320312 552.195312 C 634.902344 552.195312 633.480469 552.195312 632.058594 551.910156 L 630.070312 551.910156 C 628.082031 551.910156 625.808594 551.628906 623.820312 551.628906 L 619.273438 551.34375 C 612.738281 551.058594 606.203125 550.492188 599.386719 549.921875 C 597.964844 549.921875 596.828125 549.636719 595.40625 549.636719 L 593.703125 549.355469 C 592 549.355469 590.578125 549.070312 588.871094 549.070312 C 585.179688 548.785156 581.769531 548.5 578.359375 547.933594 C 576.941406 547.933594 575.519531 547.648438 574.097656 547.363281 C 570.972656 547.082031 567.847656 546.796875 564.722656 546.230469 L 564.4375 546.230469 C 563.015625 545.945312 561.597656 545.945312 560.175781 545.660156 L 557.335938 545.375 C 555.628906 545.09375 553.925781 544.808594 551.9375 544.808594 C 549.949219 544.523438 547.957031 544.238281 545.96875 543.957031 C 545.96875 543.957031 545.96875 543.957031 545.683594 543.957031 L 541.140625 543.386719 C 539.71875 543.101562 538.296875 543.101562 536.878906 542.820312 C 534.035156 542.25 531.195312 541.964844 528.355469 541.398438 C 528.070312 541.398438 527.5 541.398438 527.21875 541.113281 C 526.082031 540.828125 524.945312 540.828125 523.808594 540.546875 C 522.957031 540.546875 522.101562 540.261719 521.535156 540.261719 C 521.535156 540.261719 521.535156 540.261719 521.25 540.261719 C 521.25 540.261719 521.25 540.261719 520.964844 540.261719 C 519.828125 539.976562 518.691406 539.976562 517.558594 539.695312 C 517.273438 539.695312 516.988281 539.695312 516.421875 539.410156 C 515 539.125 513.578125 538.839844 512.160156 538.558594 C 510.453125 538.273438 509.03125 537.988281 507.328125 537.703125 C 505.625 537.421875 504.203125 537.136719 502.496094 536.566406 C 502.214844 536.566406 501.929688 536.566406 501.644531 536.285156 C 500.226562 536 498.519531 535.714844 497.097656 535.429688 C 496.53125 535.429688 495.964844 535.148438 495.394531 535.148438 C 494.542969 534.863281 493.972656 534.863281 493.121094 534.578125 C 492.269531 534.296875 491.417969 534.296875 490.847656 534.011719 C 490.28125 534.011719 489.996094 533.726562 489.429688 533.726562 C 488.574219 533.441406 487.722656 533.160156 486.871094 533.160156 C 486.585938 533.160156 486.300781 533.160156 486.300781 532.875 C 484.597656 532.304688 482.894531 532.023438 481.472656 531.453125 C 480.902344 531.453125 480.621094 531.167969 480.050781 531.167969 C 479.484375 530.886719 478.914062 530.886719 478.632812 530.601562 C 478.0625 530.316406 477.496094 530.316406 477.210938 530.03125 C 475.503906 529.464844 473.800781 529.179688 472.378906 528.613281 C 471.242188 528.328125 470.105469 528.042969 469.253906 527.476562 C 467.835938 526.90625 466.128906 526.339844 464.707031 525.769531 C 463.289062 525.203125 461.867188 524.632812 460.445312 524.066406 C 459.027344 523.5 457.605469 522.929688 456.46875 522.363281 C 455.617188 522.078125 454.765625 521.507812 453.910156 521.226562 C 453.058594 520.941406 452.492188 520.65625 451.640625 520.089844 C 451.070312 519.804688 450.21875 519.519531 449.648438 518.953125 C 449.082031 518.667969 448.230469 518.382812 447.660156 517.816406 L 446.808594 517.246094 C 446.523438 516.964844 446.242188 516.964844 445.957031 516.679688 C 445.386719 516.394531 444.820312 515.828125 444.25 515.542969 C 443.683594 515.257812 443.398438 514.972656 442.832031 514.691406 C 442.261719 514.121094 441.695312 513.835938 441.125 513.269531 C 440.558594 512.984375 440.273438 512.417969 439.707031 512.132812 L 439.421875 511.847656 C 438 510.144531 437.71875 509.292969 437.71875 509.292969 C 439.421875 508.15625 451.355469 495.085938 509.03125 483.152344 Z M 936.644531 671.53125 L 878.117188 1297.46875 C 874.988281 1330.425781 847.714844 1355.429688 814.46875 1355.429688 L 576.65625 1355.429688 C 543.414062 1355.429688 516.136719 1330.425781 513.011719 1297.46875 L 454.480469 672.949219 L 441.980469 540.828125 C 442.546875 541.113281 443.117188 541.398438 443.683594 541.683594 C 443.683594 541.683594 443.96875 541.683594 443.96875 541.683594 C 444.820312 541.964844 445.671875 542.535156 446.523438 542.820312 C 446.808594 543.101562 447.378906 543.101562 447.660156 543.386719 C 447.945312 543.386719 448.230469 543.671875 448.515625 543.671875 C 448.796875 543.671875 449.082031 543.957031 449.367188 543.957031 C 449.648438 543.957031 449.648438 544.238281 449.933594 544.238281 C 461.867188 549.355469 477.496094 554.183594 496.246094 558.160156 C 497.101562 558.445312 497.953125 558.445312 498.519531 558.730469 C 499.089844 558.730469 499.65625 559.015625 499.941406 559.015625 C 501.363281 559.296875 502.78125 559.582031 504.488281 559.867188 C 504.769531 559.867188 505.339844 560.152344 505.625 560.152344 L 507.042969 560.433594 C 507.613281 560.433594 508.464844 560.71875 509.03125 560.71875 C 510.453125 561.003906 511.589844 561.289062 513.011719 561.570312 C 515.285156 561.855469 517.273438 562.425781 519.546875 562.707031 C 520.398438 562.992188 521.25 562.992188 522.101562 563.277344 C 523.523438 563.558594 524.945312 563.84375 526.082031 563.84375 C 531.480469 564.695312 536.878906 565.550781 542.558594 566.402344 L 543.980469 566.6875 C 544.265625 566.6875 544.550781 566.6875 544.832031 566.6875 C 571.542969 570.378906 600.804688 572.9375 632.058594 574.640625 C 633.195312 574.640625 634.332031 574.640625 635.1875 574.925781 C 638.3125 575.210938 641.4375 575.210938 644.847656 575.210938 C 646.265625 575.210938 647.6875 575.210938 649.109375 575.492188 C 649.390625 575.492188 649.675781 575.492188 649.960938 575.492188 C 654.222656 575.777344 658.484375 575.777344 662.746094 575.777344 C 663.03125 575.777344 663.03125 575.777344 663.316406 575.777344 C 665.871094 575.777344 668.429688 575.777344 670.984375 576.0625 C 671.839844 576.0625 672.691406 576.0625 673.542969 576.0625 L 675.53125 576.0625 C 677.238281 576.0625 678.941406 576.0625 680.363281 576.0625 C 680.363281 576.0625 680.644531 576.0625 680.644531 576.0625 C 681.5 576.0625 682.066406 576.0625 682.917969 576.0625 C 687.179688 576.0625 691.441406 576.0625 696.273438 576.0625 C 704.796875 576.0625 713.320312 576.0625 721.277344 575.777344 L 727.527344 575.777344 C 728.097656 575.777344 728.378906 575.777344 728.949219 575.777344 C 730.085938 575.777344 731.222656 575.777344 732.359375 575.777344 C 732.925781 575.777344 733.210938 575.777344 733.777344 575.777344 C 734.0625 575.777344 734.0625 575.777344 734.347656 575.777344 C 736.621094 575.777344 738.894531 575.777344 741.164062 575.492188 C 741.164062 575.492188 741.449219 575.492188 741.449219 575.492188 C 788.332031 573.789062 832.085938 569.8125 869.023438 563.558594 L 869.308594 563.558594 C 869.875 563.558594 870.160156 563.277344 870.726562 563.277344 C 871.863281 562.992188 873 562.992188 874.136719 562.707031 C 874.707031 562.707031 875.273438 562.425781 875.84375 562.425781 C 876.980469 562.140625 877.832031 562.140625 878.96875 561.855469 C 880.105469 561.570312 881.523438 561.289062 882.660156 561.289062 C 882.945312 561.289062 883.230469 561.289062 883.515625 561.003906 C 886.921875 560.433594 890.332031 559.582031 893.457031 559.015625 C 893.742188 559.015625 894.3125 558.730469 894.59375 558.730469 C 895.730469 558.445312 896.867188 558.160156 898.003906 557.878906 C 898.855469 557.59375 899.425781 557.59375 900.277344 557.308594 C 900.84375 557.027344 901.414062 557.027344 901.980469 556.742188 C 918.460938 552.761719 931.816406 548.785156 942.898438 543.957031 C 943.75 543.671875 944.316406 543.386719 944.886719 543.101562 C 945.167969 543.101562 945.453125 542.820312 945.738281 542.820312 L 948.011719 541.683594 C 948.011719 541.683594 948.296875 541.683594 948.296875 541.398438 Z M 936.644531 671.53125 " fill-opacity="1" fill-rule="nonzero"/><path fill="#efbf52" d="M 634.617188 1352.019531 L 581.203125 1352.019531 C 543.980469 1352.019531 513.011719 1323.890625 509.601562 1286.671875 L 454.765625 702.5 L 453.34375 686.019531 C 452.207031 684.601562 451.355469 683.464844 450.785156 682.042969 C 451.355469 681.757812 452.207031 681.472656 452.777344 681.191406 C 454.765625 680.335938 457.320312 679.484375 459.878906 678.632812 C 486.871094 670.394531 520.398438 670.960938 548.242188 668.972656 C 671.839844 660.164062 795.433594 671.246094 918.460938 682.042969 C 924.996094 682.609375 931.816406 683.179688 938.066406 684.601562 C 938.917969 684.882812 940.054688 684.882812 940.90625 685.167969 C 940.054688 686.304688 938.917969 687.441406 937.78125 688.578125 L 936.363281 702.5 L 881.523438 1286.671875 C 878.117188 1323.605469 847.144531 1352.019531 809.925781 1352.019531 L 762.191406 1352.019531 " fill-opacity="1" fill-rule="nonzero"/><path fill="#e39319" d="M 943.75 677.496094 C 943.75 680.054688 942.894531 682.609375 940.90625 685.167969 C 940.054688 686.304688 938.917969 687.441406 937.78125 688.578125 C 935.507812 690.566406 932.953125 692.554688 929.828125 694.261719 C 896.015625 713.863281 804.527344 727.789062 696.839844 727.789062 C 590.863281 727.789062 500.226562 714.148438 465.277344 695.113281 C 459.878906 692.269531 455.902344 689.144531 453.34375 686.019531 C 452.207031 684.601562 451.355469 683.464844 450.785156 682.042969 C 450.21875 680.621094 449.933594 678.917969 449.933594 677.496094 C 449.933594 675.222656 450.503906 673.234375 451.921875 670.960938 C 451.921875 670.675781 452.207031 670.675781 452.207031 670.394531 C 469.253906 645.957031 572.109375 627.207031 696.558594 627.207031 C 817.597656 627.207031 918.460938 644.820312 939.488281 668.402344 C 942.042969 671.246094 943.464844 674.371094 943.464844 677.210938 C 943.75 677.496094 943.75 677.496094 943.75 677.496094 Z M 943.75 677.496094 " fill-opacity="1" fill-rule="nonzero"/><path fill="#e39319" d="M 929.542969 694.261719 C 895.730469 713.863281 804.242188 727.789062 696.558594 727.789062 C 590.578125 727.789062 499.941406 714.148438 464.992188 695.113281 C 498.804688 675.507812 590.292969 661.585938 697.976562 661.585938 C 804.242188 661.585938 894.878906 675.222656 929.542969 694.261719 Z M 929.542969 694.261719 " fill-opacity="1" fill-rule="nonzero"/><path fill="#f9ce78" d="M 752.816406 768.703125 L 752.816406 1243.199219 L 746.5625 1305.707031 L 645.699219 1305.707031 L 643.140625 1276.15625 L 643.140625 768.703125 C 660.1875 769.554688 678.089844 770.121094 696.273438 770.121094 C 716.164062 770.121094 734.914062 769.554688 752.816406 768.703125 Z M 752.816406 768.703125 " fill-opacity="1" fill-rule="nonzero"/><path fill="#eda754" d="M 746.847656 1312.242188 L 645.984375 1312.242188 C 642.574219 1312.242188 639.730469 1309.683594 639.449219 1306.273438 L 636.890625 1276.726562 C 636.890625 1276.441406 636.890625 1276.441406 636.890625 1276.15625 L 636.890625 768.703125 C 636.890625 766.996094 637.742188 765.292969 638.878906 763.871094 C 640.300781 762.734375 642.003906 761.882812 643.710938 762.167969 C 660.757812 763.019531 678.65625 763.585938 696.558594 763.585938 C 715.59375 763.585938 734.347656 763.019531 752.53125 762.167969 C 754.234375 762.167969 756.222656 762.734375 757.359375 763.871094 C 758.496094 765.007812 759.351562 766.714844 759.351562 768.703125 L 759.351562 1243.199219 C 759.351562 1243.484375 759.351562 1243.765625 759.351562 1243.765625 L 753.097656 1306.273438 C 753.097656 1309.683594 750.257812 1312.242188 746.847656 1312.242188 Z M 651.949219 1299.171875 L 740.882812 1299.171875 L 746.5625 1242.628906 L 746.5625 775.519531 C 730.367188 776.375 713.605469 776.65625 696.839844 776.65625 C 680.929688 776.65625 665.304688 776.375 650.246094 775.519531 L 650.246094 1275.875 Z M 651.949219 1299.171875 " fill-opacity="1" fill-rule="nonzero"/><path fill="#f9ce78" d="M 643.425781 1276.15625 L 643.425781 1305.707031 L 597.398438 1305.707031 C 565.574219 1305.707031 538.867188 1281.554688 536.023438 1249.734375 L 488.859375 748.527344 L 508.179688 746.824219 C 528.355469 754.78125 560.460938 761.316406 599.667969 765.292969 Z M 643.425781 1276.15625 " fill-opacity="1" fill-rule="nonzero"/><path fill="#eda754" d="M 643.425781 1312.242188 L 597.398438 1312.242188 C 561.878906 1312.242188 532.617188 1285.535156 529.488281 1250.300781 L 482.324219 749.097656 C 482.039062 747.390625 482.609375 745.6875 483.746094 744.265625 C 484.882812 742.847656 486.585938 741.992188 488.292969 741.992188 L 507.613281 740.289062 C 508.75 740.289062 509.601562 740.289062 510.453125 740.855469 C 530.058594 748.527344 561.878906 755.0625 600.238281 759.042969 C 603.363281 759.324219 605.921875 761.882812 606.203125 765.007812 L 649.675781 1275.875 C 649.675781 1276.15625 649.675781 1276.15625 649.675781 1276.441406 L 649.675781 1305.992188 C 649.960938 1309.402344 646.835938 1312.242188 643.425781 1312.242188 Z M 495.964844 754.496094 L 542.558594 1249.164062 C 545.117188 1277.578125 568.699219 1299.171875 597.398438 1299.171875 L 636.890625 1299.171875 L 636.890625 1276.441406 L 593.703125 771.257812 C 557.050781 767.28125 527.21875 761.03125 507.328125 753.359375 Z M 495.964844 754.496094 " fill-opacity="1" fill-rule="nonzero"/><path fill="#f9ce78" d="M 902.265625 748.246094 L 855.386719 1249.734375 C 852.542969 1281.554688 825.835938 1305.707031 794.011719 1305.707031 L 752.816406 1305.707031 L 752.816406 1243.199219 L 799.695312 764.722656 C 836.0625 760.460938 865.898438 754.210938 884.933594 746.824219 Z M 902.265625 748.246094 " fill-opacity="1" fill-rule="nonzero"/><path fill="#eda754" d="M 793.730469 1312.242188 L 752.816406 1312.242188 C 749.121094 1312.242188 746.28125 1309.402344 746.28125 1305.707031 L 746.28125 1243.199219 C 746.28125 1242.914062 746.28125 1242.628906 746.28125 1242.628906 L 793.160156 764.15625 C 793.445312 761.03125 796.003906 758.757812 798.84375 758.1875 C 834.359375 754.210938 864.191406 747.960938 882.660156 740.574219 C 883.515625 740.289062 884.648438 740.003906 885.785156 740.003906 L 902.835938 741.710938 C 906.527344 741.992188 909.085938 745.121094 908.800781 748.8125 L 861.921875 1250.300781 C 858.511719 1285.535156 829.246094 1312.242188 793.730469 1312.242188 Z M 759.632812 1299.171875 L 794.011719 1299.171875 C 822.710938 1299.171875 846.292969 1277.578125 848.851562 1249.164062 L 895.164062 754.210938 L 886.355469 753.359375 C 867.601562 760.460938 840.042969 766.429688 805.945312 770.691406 L 759.632812 1243.484375 Z M 759.632812 1299.171875 " fill-opacity="1" fill-rule="nonzero"/><g clip-path="url(#e4e0955be2)"><path fill="#bdbec0" d="M 843.453125 61.503906 C 836.347656 70.3125 828.960938 78.835938 822.140625 87.644531 C 815.324219 96.453125 809.070312 105.257812 803.671875 114.636719 C 798.273438 124.011719 794.011719 133.386719 791.171875 143.046875 C 788.332031 152.707031 786.910156 162.9375 787.195312 172.597656 C 787.195312 177.429688 787.761719 182.257812 788.898438 186.804688 C 789.75 191.351562 791.171875 195.613281 793.160156 199.589844 C 796.855469 207.546875 802.539062 214.648438 809.925781 221.183594 C 824.414062 234.824219 844.019531 245.621094 862.488281 262.667969 C 867.035156 266.929688 871.296875 271.757812 875.273438 277.441406 C 879.25 282.839844 882.660156 289.089844 885.21875 295.910156 C 887.492188 302.730469 888.914062 309.546875 889.195312 316.652344 C 889.480469 323.753906 888.914062 330.859375 887.207031 337.394531 C 883.796875 350.464844 878.117188 361.828125 871.863281 371.773438 C 865.613281 382 859.078125 390.808594 852.828125 399.902344 C 846.578125 408.710938 840.894531 417.519531 836.347656 426.894531 C 831.800781 435.984375 828.960938 445.363281 828.394531 455.308594 C 827.824219 465.25 830.097656 475.480469 834.074219 485.140625 C 836.0625 489.972656 838.90625 494.515625 842.03125 499.0625 C 845.15625 503.609375 849.132812 507.585938 853.394531 511.28125 C 832.371094 502.472656 816.175781 481.164062 812.765625 456.445312 C 811.0625 443.941406 813.050781 431.15625 816.742188 419.507812 C 820.4375 407.855469 825.835938 397.34375 831.519531 387.117188 C 836.917969 377.171875 842.597656 367.511719 847.714844 358.132812 C 852.542969 348.757812 856.523438 339.667969 857.941406 331.140625 C 858.792969 326.878906 859.078125 322.617188 858.792969 318.640625 C 858.511719 314.664062 857.375 310.683594 855.953125 306.992188 C 853.113281 299.605469 847.714844 292.5 840.609375 285.679688 C 826.402344 272.042969 806.800781 260.394531 789.183594 242.777344 C 780.375 233.96875 772.136719 223.171875 767.589844 210.386719 C 762.757812 197.886719 761.339844 184.53125 762.476562 172.03125 C 763.042969 165.777344 764.179688 159.527344 765.601562 153.5625 C 767.304688 147.59375 769.292969 141.628906 771.851562 136.230469 C 776.964844 125.148438 783.785156 114.917969 791.171875 106.113281 C 798.84375 97.304688 807.082031 89.0625 815.890625 81.960938 C 820.4375 78.265625 824.699219 74.855469 829.246094 71.449219 C 834.074219 67.753906 838.621094 64.628906 843.453125 61.503906 Z M 843.453125 61.503906 " fill-opacity="1" fill-rule="nonzero"/></g><path fill="#bdbec0" d="M 704.230469 223.457031 C 698.261719 229.992188 694.570312 236.8125 692.296875 243.628906 C 690.023438 250.449219 689.453125 257.269531 689.738281 263.804688 C 689.738281 266.929688 690.589844 270.054688 691.160156 272.894531 C 692.011719 275.738281 692.863281 278.292969 694.285156 280.851562 C 694.851562 281.988281 695.707031 283.125 696.273438 284.261719 C 696.839844 285.398438 697.976562 286.535156 698.832031 287.671875 C 700.820312 290.226562 703.375 292.785156 706.21875 295.910156 C 711.902344 302.160156 717.867188 309.265625 722.414062 317.503906 C 727.242188 325.742188 730.9375 334.835938 732.359375 344.78125 C 733.777344 355.007812 732.359375 365.238281 728.097656 374.328125 C 723.832031 383.136719 716.445312 390.523438 707.636719 392.796875 C 712.183594 385.125 713.320312 377.738281 713.320312 370.636719 C 713.035156 363.53125 711.332031 357 708.773438 351.316406 C 703.375 339.382812 694 329.152344 683.203125 317.503906 C 680.363281 314.378906 677.519531 310.96875 674.394531 306.992188 C 672.976562 305.003906 671.554688 302.730469 670.132812 300.171875 C 668.714844 297.613281 667.578125 295.058594 666.722656 292.5 C 663.03125 281.988281 662.746094 270.90625 665.304688 261.246094 C 667.859375 251.300781 672.691406 242.492188 679.511719 235.675781 C 686.328125 228.289062 695.136719 223.742188 704.230469 223.457031 Z M 704.230469 223.457031 " fill-opacity="1" fill-rule="nonzero"/><path fill="#bdbec0" d="M 603.363281 93.894531 C 590.007812 104.121094 580.632812 116.910156 575.234375 130.832031 C 569.835938 144.753906 568.699219 159.242188 571.824219 172.882812 C 572.675781 176.292969 573.53125 179.703125 574.667969 182.828125 C 575.804688 185.953125 577.222656 189.078125 578.929688 192.203125 C 582.339844 198.167969 586.03125 203.285156 591.144531 208.398438 C 596.261719 213.796875 601.941406 218.910156 608.195312 225.160156 C 611.320312 228.289062 614.445312 231.695312 617.285156 235.390625 C 620.128906 239.085938 623.253906 243.0625 625.808594 247.890625 C 630.925781 257.269531 633.765625 268.917969 632.628906 280 C 631.492188 290.796875 628.082031 300.457031 624.105469 308.695312 C 620.128906 316.9375 615.863281 324.039062 611.886719 330.859375 C 609.898438 334.269531 608.195312 337.675781 606.773438 340.800781 C 605.066406 343.929688 603.933594 347.335938 602.796875 350.464844 C 598.535156 363.25 598.816406 378.023438 603.078125 392.515625 C 607.339844 406.722656 615.582031 420.644531 628.367188 431.441406 C 612.171875 426.609375 597.964844 414.390625 588.871094 399.050781 C 579.78125 383.421875 575.519531 364.386719 578.644531 345.066406 C 580.347656 335.402344 583.757812 326.878906 587.167969 318.925781 C 590.578125 310.96875 594.269531 303.867188 596.828125 297.046875 C 599.667969 290.226562 601.375 283.976562 601.375 278.578125 C 601.660156 273.179688 600.523438 268.351562 597.679688 263.519531 C 596.542969 260.960938 594.554688 258.40625 592.566406 255.5625 C 590.292969 253.007812 588.019531 250.164062 585.464844 247.324219 C 580.347656 241.640625 574.382812 235.675781 568.414062 228.855469 C 565.574219 225.160156 562.734375 221.46875 560.175781 217.492188 C 557.617188 213.226562 555.347656 208.964844 553.640625 204.421875 C 549.949219 195.613281 547.957031 186.234375 547.105469 176.574219 C 546.539062 167.199219 547.390625 157.539062 549.949219 148.730469 C 552.503906 139.640625 556.480469 131.398438 561.597656 124.011719 C 572.109375 108.667969 587.167969 97.871094 603.363281 93.894531 Z M 603.363281 93.894531 " fill-opacity="1" fill-rule="nonzero"/></svg>